HIERARCHY
ROOT SpineBase
{
  OFFSET 0.000000 0.000000 0.000000
  CHANNELS 6 Xposition Yposition Zposition Zrotation Xrotation Yrotation
  JOINT SpineMid
  {
    OFFSET -0.000000 27.899458 0.000000
    CHANNELS 3 Zrotation Xrotation Yrotation
    JOINT SpineShoulder
    {
      OFFSET -0.113776 20.662543 -0.641207
      CHANNELS 3 Zrotation Xrotation Yrotation
      JOINT Neck
      {
        OFFSET -0.092118 6.822865 -0.501543
        CHANNELS 3 Zrotation Xrotation Yrotation
        JOINT Head
        {
          OFFSET -2.840979 13.679705 -0.592567
          CHANNELS 3 Zrotation Xrotation Yrotation
          End Site
          {
            OFFSET 0 0 0
          }
        }
      }
      JOINT ShoulderLeft
      {
        OFFSET -14.783075 -5.802782 11.444185
        CHANNELS 3 Zrotation Xrotation Yrotation
        JOINT ElbowLeft
        {
          OFFSET -1.081939 -27.067696 1.025641
          CHANNELS 3 Zrotation Xrotation Yrotation
          JOINT WristLeft
          {
            OFFSET -1.348676 -20.915218 -5.662976
            CHANNELS 3 Zrotation Xrotation Yrotation
            JOINT HandLeft
            {
              OFFSET 0.491410 -3.473927 -0.671049
              CHANNELS 3 Zrotation Xrotation Yrotation
              JOINT HandTipLeft
              {
                OFFSET 0.314266 -4.351159 -1.430968
                CHANNELS 3 Zrotation Xrotation Yrotation
                End Site
                {
                  OFFSET 0 0 0
                }
              }
              JOINT ThumbLeft
              {
                OFFSET 1.634935 1.975690 -4.575002
                CHANNELS 3 Zrotation Xrotation Yrotation
                End Site
                {
                  OFFSET 0 0 0
                }
              }
            }
          }
        }
      }
      JOINT ShoulderRight
      {
        OFFSET 12.384617 -3.678763 -10.198311
        CHANNELS 3 Zrotation Xrotation Yrotation
        JOINT ElbowRight
        {
          OFFSET 5.239809 -20.816112 -2.774345
          CHANNELS 3 Zrotation Xrotation Yrotation
          JOINT WristRight
          {
            OFFSET -2.482183 -20.994171 -5.126016
            CHANNELS 3 Zrotation Xrotation Yrotation
            JOINT HandRight
            {
              OFFSET -1.380342 -6.057522 -0.457109
              CHANNELS 3 Zrotation Xrotation Yrotation
              JOINT HandTipRight
              {
                OFFSET -1.553857 -6.105114 -1.392574
                CHANNELS 3 Zrotation Xrotation Yrotation
                End Site
                {
                  OFFSET 0 0 0
                }
              }
              JOINT ThumbRight
              {
                OFFSET -2.378997 1.175971 1.256768
                CHANNELS 3 Zrotation Xrotation Yrotation
                End Site
                {
                  OFFSET 0 0 0
                }
              }
            }
          }
        }
      }
    }
  }
  JOINT HipLeft
  {
    OFFSET -5.784136 0.011704 0.340567
    CHANNELS 3 Zrotation Xrotation Yrotation
    JOINT KneeLeft
    {
      OFFSET -1.722684 -30.560326 4.425843
      CHANNELS 3 Zrotation Xrotation Yrotation
      JOINT AnkleLeft
      {
        OFFSET 0.514338 -31.708783 5.688519
        CHANNELS 3 Zrotation Xrotation Yrotation
        JOINT FootLeft
        {
          OFFSET -4.206941 -7.681447 -4.248470
          CHANNELS 3 Zrotation Xrotation Yrotation
          End Site
          {
            OFFSET 0 0 0
          }
        }
      }
    }
  }
  JOINT HipRight
  {
    OFFSET 4.543272 0.729227 -6.782424
    CHANNELS 3 Zrotation Xrotation Yrotation
    JOINT KneeRight
    {
      OFFSET 10.813131 -28.157136 0.427186
      CHANNELS 3 Zrotation Xrotation Yrotation
      JOINT AnkleRight
      {
        OFFSET 11.104820 -34.493403 4.027639
        CHANNELS 3 Zrotation Xrotation Yrotation
        JOINT FootRight
        {
          OFFSET -0.541302 -5.896951 -4.975081
          CHANNELS 3 Zrotation Xrotation Yrotation
          End Site
          {
            OFFSET 0 0 0
          }
        }
      }
    }
  }
}
MOTION
Frames: 9
Frame Time: 0.033333
75.953027 70.367688 376.735209 0.000000 0.000000 34.594698 -0.000000 0.000000 -34.594698 -0.000000 0.000000 0.000000 -0.000000 0.000000 0.000000 0.000000 0.000000 0.000000 -0.000000 0.000000 0.000000 -0.000000 0.000000 0.000000 -0.000000 0.000000 0.000000 -0.000000 0.000000 0.000000 0.000000 0.000000 0.000000 0.000000 0.000000 0.000000 -0.000000 0.000000 0.000000 -0.000000 0.000000 0.000000 -0.000000 0.000000 0.000000 -0.000000 0.000000 0.000000 0.000000 0.000000 0.000000 0.000000 0.000000 0.000000 -0.000000 0.000000 -34.594698 -0.000000 0.000000 0.000000 -0.000000 0.000000 0.000000 0.000000 0.000000 0.000000 -0.000000 0.000000 -34.594698 -0.000000 0.000000 0.000000 -0.000000 0.000000 0.000000 0.000000 0.000000 0.000000
76.057894 70.361892 376.748597 -0.000208 -0.112326 35.213351 0.064940 0.091652 -35.213403 -0.000000 0.000000 0.000000 -0.000000 0.000000 0.000000 0.000000 0.000000 0.000000 -0.000000 0.000000 0.000000 -0.000000 0.000000 0.000000 0.024108 6.960056 0.968209 -0.142474 -6.958646 -0.978338 0.000000 0.000000 0.000000 0.000000 0.000000 0.000000 -0.000000 0.000000 0.000000 -0.000000 0.000000 0.000000 -0.398154 1.322077 -0.266196 1.382880 -1.878436 0.223373 0.000000 0.000000 0.000000 0.000000 0.000000 0.000000 0.064940 0.091652 -35.213403 -0.000000 0.000000 0.000000 -0.000000 0.000000 0.000000 0.000000 0.000000 0.000000 0.064940 0.091652 -35.213403 -0.000000 0.000000 0.000000 -0.000000 0.000000 0.000000 0.000000 0.000000 0.000000
76.148943 70.352550 376.760214 -0.003792 -0.216104 35.723927 0.129258 0.173228 -35.724130 -0.000000 0.000000 0.000000 -0.000000 0.000000 0.000000 0.000000 0.000000 0.000000 -0.000000 0.000000 0.000000 -0.000000 0.000000 0.000000 -0.420477 15.500214 2.285321 -0.498558 -14.754761 -2.175240 0.000000 0.000000 0.000000 0.000000 0.000000 0.000000 -0.000000 0.000000 0.000000 -0.000000 0.000000 0.000000 -0.849039 2.382065 -0.459662 2.652489 -3.563265 0.490073 0.000000 0.000000 0.000000 0.000000 0.000000 0.000000 0.129258 0.173228 -35.724130 -0.000000 0.000000 0.000000 0.423127 0.855556 -0.704267 0.000000 0.000000 0.000000 0.129258 0.173228 -35.724130 -0.000000 0.000000 0.000000 -0.000000 0.000000 0.000000 0.000000 0.000000 0.000000
76.226173 70.339660 376.770060 -0.010750 -0.311283 36.125463 0.192203 0.245094 -36.125903 -0.000000 0.000000 0.000000 -0.000000 0.000000 0.000000 0.000000 0.000000 0.000000 -0.000000 0.000000 0.000000 -0.000000 0.000000 0.000000 -1.623357 24.277690 3.989897 -0.160063 -23.365606 -3.570958 0.000000 0.000000 0.000000 0.000000 0.000000 0.000000 -0.000000 0.000000 0.000000 -0.000000 0.000000 0.000000 -1.355332 3.180335 -0.582196 3.789609 -5.053096 0.777588 0.000000 0.000000 0.000000 0.000000 0.000000 0.000000 0.192203 0.245094 -36.125903 -0.000000 0.000000 0.000000 0.630344 1.106184 -0.958317 0.000000 0.000000 0.000000 0.192203 0.245094 -36.125903 -0.000000 0.000000 0.000000 -0.132315 0.917090 0.028311 0.000000 0.000000 0.000000
76.289585 70.323223 376.778134 -0.021077 -0.397821 36.417360 0.253135 0.307618 -36.418113 -0.000000 0.000000 0.000000 -0.000000 0.000000 0.000000 0.000000 0.000000 0.000000 -0.000000 0.000000 0.000000 -0.000000 0.000000 0.000000 -3.593456 30.817779 5.861290 0.897155 -29.896620 -4.523863 0.000000 0.000000 0.000000 0.000000 0.000000 0.000000 -0.000000 0.000000 0.000000 -0.000000 0.000000 0.000000 -1.918741 3.717859 -0.636417 4.778761 -6.345888 1.064614 0.000000 0.000000 0.000000 0.000000 0.000000 0.000000 0.253135 0.307618 -36.418113 -0.000000 0.000000 0.000000 0.831613 1.234101 -1.142526 0.000000 0.000000 0.000000 0.253135 0.307618 -36.418113 -0.000000 0.000000 0.000000 -0.194487 1.226458 0.053092 0.000000 0.000000 0.000000
76.339177 70.303239 376.784436 -0.034767 -0.475685 36.599355 0.311527 0.361161 -36.600481 -0.000000 0.000000 0.000000 -0.000000 0.000000 0.000000 0.000000 0.000000 0.000000 -0.000000 0.000000 0.000000 -0.000000 0.000000 0.000000 -5.733620 32.973159 7.231900 2.898075 -32.163720 -4.570141 0.000000 0.000000 0.000000 0.000000 0.000000 0.000000 -0.000000 0.000000 0.000000 -0.000000 0.000000 0.000000 -2.539993 3.995744 -0.625753 5.609149 -7.438107 1.331888 0.000000 0.000000 0.000000 0.000000 0.000000 0.000000 0.167334 1.200426 -36.720938 -0.250908 -0.653109 -0.040660 1.890058 1.306900 -1.099023 0.000000 0.000000 0.000000 0.311527 0.361161 -36.600481 -0.000000 0.000000 0.000000 -0.265712 1.537627 0.085599 0.000000 0.000000 0.000000
76.371364 70.285692 376.781831 -0.065327 -0.551530 36.641776 0.381583 0.403547 -36.643434 -0.000000 0.000000 0.000000 -0.000000 0.000000 0.000000 0.000000 0.000000 0.000000 -0.485858 -0.693257 0.006359 0.793240 -0.112338 -0.045169 -7.823439 28.229677 7.099744 5.783303 -27.838442 -3.737406 0.000000 0.000000 0.000000 0.000000 0.000000 0.000000 -0.000000 0.000000 0.000000 -0.000000 0.000000 0.000000 -3.625571 3.700117 -0.448290 6.490192 -7.943962 1.447667 0.000000 0.000000 0.000000 0.000000 0.000000 0.000000 0.254891 1.275491 -36.766903 -0.325691 -0.695073 -0.053639 2.219637 1.265533 -1.200133 0.000000 0.000000 0.000000 0.381583 0.403547 -36.643434 -0.000000 0.000000 0.000000 -0.359850 1.797057 0.142343 0.000000 0.000000 0.000000
76.392998 70.259374 376.780623 -0.101072 -0.603111 36.556849 0.440422 0.424253 -36.559012 -0.251444 -0.808373 -0.031156 0.251030 0.808502 0.027611 0.000000 0.000000 0.000000 -0.181489 0.053711 0.044619 0.433101 0.754455 -0.016604 -7.432297 18.638930 5.198503 9.637041 -16.596522 -2.740069 0.000000 0.000000 0.000000 0.000000 0.000000 0.000000 0.251030 0.808502 0.027611 -0.475439 -0.885001 0.217354 -3.684952 4.220744 -0.478380 6.951754 -8.824315 1.672759 0.000000 0.000000 0.000000 0.000000 0.000000 0.000000 0.347761 1.299156 -36.680438 -0.389645 -0.738102 -0.064209 2.588411 1.076750 -1.266770 0.000000 0.000000 0.000000 0.440422 0.424253 -36.559012 -0.000000 0.000000 0.000000 -0.502074 2.107801 0.235569 0.000000 0.000000 0.000000
76.403507 70.228653 376.786711 -0.136032 -0.646358 36.433491 -0.193854 -0.056442 -36.446315 -0.026929 -0.065298 -0.020251 0.284938 0.872348 0.030571 0.000000 0.000000 0.000000 -0.087737 0.092228 0.050738 0.373357 0.779791 -0.019571 -7.550354 14.879410 4.490964 11.480470 -12.758478 -2.745629 0.000000 0.000000 0.000000 0.000000 0.000000 0.000000 0.284938 0.872348 0.030571 -0.770242 -1.011510 0.301274 -3.724858 3.977851 -0.448131 6.171223 -9.302506 1.910450 0.000000 0.000000 0.000000 0.000000 0.000000 0.000000 0.426246 1.287190 -36.552164 -0.399912 -0.736774 -0.064931 2.721281 0.568079 -1.076218 0.000000 0.000000 0.000000 0.493321 0.439229 -36.436149 -0.000000 0.000000 0.000000 -0.588879 2.374106 0.285934 0.000000 0.000000 0.000000
